<?xml version="1.0" encoding="UTF-8"?>
<!-- Generator: Adobe Illustrator 23.0.6, SVG Export Plug-In . SVG Version: 6.00 Build 0)  -->
<svg version="1.1" id="Layer_1" xmlns="http://www.w3.org/2000/svg" xmlns:xlink="http://www.w3.org/1999/xlink" x="0px" y="0px" viewBox="0 0 340.7 77.9" style="enable-background:new 0 0 340.7 77.9;" xml:space="preserve">
<g id="BigCommerce-logo-dark" transform="translate(-69.01 -122.119)">
	<g id="Group_312" transform="translate(69.01 122.119)">
		<path id="Path_480" d="M94.2,37.7c4.2-0.1,8.2,1.8,10.7,5.2V1.8c0-0.5-0.4-1-1-1c-0.2,0-0.4,0.1-0.6,0.2L52.6,38.2h1.3    c5.3,0,8,3.4,8,7.1c0.1,2.5-1.3,4.8-3.5,5.9c-0.2,0.1-0.3,0.3-0.2,0.5c0,0.1,0.1,0.2,0.2,0.2c2.5,1.1,4.1,3.7,4,6.4    c0,4.2-2.8,7.5-8,7.5H39.9c-0.3,0-0.6-0.2-0.6-0.5c0,0,0,0,0,0V47.8L1.4,75.5c-0.4,0.3-0.5,0.8-0.2,1.2c0.2,0.2,0.4,0.4,0.7,0.4    H104c0.4,0,0.8-0.3,0.8-0.8c0,0,0,0,0-0.1v-14c-2.9,2.7-6.7,4.2-10.7,4.2c-8.2,0-14.8-5.6-14.8-14.3    C79.4,43.3,86.1,37.7,94.2,37.7z M74,65.4c0,0.3-0.2,0.5-0.5,0.5c0,0,0,0,0,0h-4.9c-0.3,0-0.5-0.2-0.5-0.5c0,0,0,0,0,0V38.6    c0-0.3,0.2-0.5,0.5-0.5c0,0,0,0,0,0h4.9c0.3,0,0.5,0.2,0.5,0.5c0,0,0,0,0,0V65.4z"/>
	</g>
	<path id="Path_481" d="M114.8,171.3h6.8c2,0,3.2-1.1,3.2-2.9c0-1.7-1.3-2.9-3.2-2.9h-7.1c-0.2,0-0.3,0.1-0.3,0.3v5   C114.3,171.1,114.5,171.3,114.8,171.3z"/>
	<path id="Path_482" d="M114.8,182.8h7.1c2.2,0,3.5-1.2,3.5-3.2c0-1.8-1.3-3.2-3.5-3.2h-7.1c-0.3,0-0.6,0.2-0.6,0.5c0,0,0,0,0,0v5.2   C114.2,182.6,114.5,182.8,114.8,182.8z"/>
	<path id="Path_483" d="M169.5,168.2c-1.5-2-3.8-3.1-6.3-3.2c-5.1,0-8.7,3.9-8.7,9.1s3.7,9.1,8.7,9.1c2.1,0,4.1-0.7,5.7-2   c0.1-0.1,0.1-0.2,0.1-0.4v-2.7c0-0.2-0.2-0.4-0.4-0.4h-6.3c-0.3,0-0.6-0.2-0.6-0.5c0,0,0,0,0,0v-3.9c0-0.3,0.2-0.6,0.5-0.6   c0,0,0,0,0,0H174v-6.3l-3.7,2C170,168.6,169.7,168.5,169.5,168.2z"/>
	<path id="Path_484" d="M178.3,174.2c0-8.5,6.1-14.3,14-14.3c4.3-0.1,8.3,2.1,10.4,5.8c0.1,0.2,0.1,0.5-0.1,0.6c0,0-0.1,0-0.1,0.1   l-3.2,1.7c-0.2,0.1-0.4,0.1-0.5-0.1c0,0,0,0,0-0.1c-1.4-2.2-3.8-3.6-6.5-3.7c-5.3,0-9.2,4.2-9.2,10c0,5.8,3.9,10,9.2,10   c2.6-0.1,5.1-1.4,6.5-3.7c0.1-0.2,0.3-0.3,0.5-0.2c0,0,0,0,0.1,0l3.2,1.6c0.2,0.1,0.4,0.4,0.2,0.6c0,0,0,0,0,0.1   c-2.2,3.7-6.2,5.9-10.4,5.9C184.5,188.5,178.3,182.6,178.3,174.2z"/>
	<path id="Path_485" d="M205.6,174.2c0-6.9,3.9-12.3,9.9-13.8c10.1-2.7,19.3,6.8,17.1,17.3c-1.1,6.4-6.8,11.1-13.3,10.9   C211.2,188.5,205.6,182.4,205.6,174.2z M228.1,174.2c0-5.7-3.5-10-8.9-10c-5.4,0-8.9,4.3-8.9,10s3.5,10,8.9,10   S228.1,179.8,228.1,174.2z"/>
	<path id="Path_486" d="M261.6,187.6v-21.1l-8.4,21.2c0,0.1-0.1,0.1-0.2,0.1h-1.8c-0.1,0-0.2-0.1-0.2-0.1l-8.5-21.2v21.1   c0,0.2-0.1,0.3-0.3,0.4c0,0,0,0,0,0H238c-0.2,0-0.3-0.1-0.4-0.3c0,0,0,0,0,0v-27.1c0-0.2,0.1-0.3,0.3-0.4c0,0,0,0,0,0h6.1   c0.3,0,0.5,0.2,0.6,0.4l7.4,19l7.3-19c0.1-0.3,0.4-0.4,0.6-0.4h6.1c0.2,0,0.3,0.1,0.4,0.3c0,0,0,0,0,0v27.1c0,0.2-0.1,0.3-0.3,0.4   c0,0,0,0,0,0h-4.2C261.7,187.9,261.6,187.8,261.6,187.6z"/>
	<path id="Path_487" d="M309.6,187.5v-26.7c0-0.3,0.2-0.5,0.5-0.5c0,0,0,0,0,0h18c0.3,0,0.5,0.2,0.5,0.5c0,0,0,0,0,0v3.2   c0,0.3-0.2,0.5-0.5,0.5c0,0,0,0,0,0h-13.1c-0.3,0-0.5,0.2-0.5,0.5c0,0,0,0,0,0v6.1c0,0.3,0.2,0.5,0.5,0.5c0,0,0,0,0,0h12.8   c0.3,0,0.5,0.2,0.5,0.5c0,0,0,0,0,0v3.2c0,0.3-0.2,0.5-0.5,0.5c0,0,0,0,0,0h-12.8c-0.3,0-0.5,0.2-0.5,0.5c0,0,0,0,0,0v6.7   c0,0.3,0.2,0.5,0.5,0.5c0,0,0,0,0,0H328c0.3,0,0.5,0.2,0.5,0.5c0,0,0,0,0,0v3.2c0,0.3-0.2,0.5-0.5,0.5c0,0,0,0,0,0h-18   C309.8,188,309.6,187.8,309.6,187.5z"/>
	<path id="Path_488" d="M351.1,187.7l-5.9-9.9c-0.1-0.1-0.3-0.2-0.4-0.2h-4.1c-0.3,0-0.5,0.2-0.5,0.5c0,0,0,0,0,0v9.4   c0,0.3-0.2,0.5-0.5,0.5c0,0,0,0,0,0h-3.8c-0.3,0-0.5-0.2-0.5-0.5c0,0,0,0,0,0v-26.7c0-0.3,0.2-0.5,0.5-0.5c0,0,0,0,0,0h11.7   c5.5,0,9.1,3.5,9.1,8.7c0.2,3.7-2.3,7.1-5.9,8c-0.3,0.1-0.5,0.3-0.4,0.6c0,0,0,0.1,0.1,0.1c1.1,1.8,4.7,7.5,6,9.5   c0.2,0.2,0.1,0.5-0.1,0.7c-0.1,0.1-0.2,0.1-0.3,0.1h-4.4C351.4,188,351.2,187.9,351.1,187.7z M351.7,168.9c0-2.7-2-4.4-4.7-4.4   h-6.2c-0.3,0-0.5,0.2-0.5,0.5c0,0,0,0,0,0v7.8c0,0.3,0.2,0.5,0.5,0.5c0,0,0,0,0,0h6.2C349.8,173.3,351.7,171.6,351.7,168.9   L351.7,168.9z"/>
	<path id="Path_489" d="M389.6,187.5v-26.7c0-0.3,0.2-0.5,0.5-0.5c0,0,0,0,0,0h18.1c0.3,0,0.5,0.2,0.5,0.5c0,0,0,0,0,0v3.3   c0,0.3-0.2,0.5-0.5,0.5c0,0,0,0,0,0H395c-0.3,0-0.5,0.2-0.5,0.5c0,0,0,0,0,0v6.2c0,0.3,0.2,0.5,0.5,0.5c0,0,0,0,0,0h12.8   c0.3,0,0.5,0.2,0.5,0.5c0,0,0,0,0,0v3.3c0,0.3-0.2,0.5-0.5,0.5c0,0,0,0,0,0H395c-0.3,0-0.5,0.2-0.5,0.5c0,0,0,0,0,0v6.8   c0,0.3,0.2,0.5,0.5,0.5c0,0,0,0,0,0h13.2c0.3,0,0.5,0.2,0.5,0.5c0,0,0,0,0,0v3.3c0,0.3-0.2,0.5-0.5,0.5c0,0,0,0,0,0h-18.1   C389.8,188,389.6,187.8,389.6,187.5z"/>
	<path id="Path_490" d="M360.3,174c0-8.5,6.1-14.3,14-14.3c4.3-0.1,8.3,2.1,10.4,5.8c0.1,0.2,0.1,0.5-0.1,0.6c0,0-0.1,0-0.1,0.1   l-3.2,1.7c-0.2,0.1-0.4,0.1-0.5-0.1c0,0,0,0,0-0.1c-1.4-2.2-3.8-3.6-6.5-3.7c-5.3,0-9.2,4.2-9.2,10c0,5.8,3.9,10,9.2,10   c2.6-0.1,5.1-1.4,6.5-3.7c0.1-0.2,0.3-0.3,0.5-0.2c0,0,0,0,0.1,0l3.2,1.6c0.2,0.1,0.4,0.4,0.2,0.6c0,0,0,0,0,0.1   c-2.2,3.7-6.2,5.9-10.4,5.9C366.4,188.3,360.3,182.6,360.3,174z"/>
	<path id="Path_491" d="M297.6,187.6v-21.1l-8.4,21.2c0,0.1-0.1,0.1-0.2,0.1h-1.8c-0.1,0-0.2-0.1-0.2-0.1l-8.5-21.2v21.1   c0,0.2-0.1,0.3-0.3,0.4c0,0,0,0,0,0H274c-0.2,0-0.3-0.1-0.4-0.3c0,0,0,0,0,0v-27.1c0-0.2,0.1-0.3,0.3-0.4c0,0,0,0,0,0h6.1   c0.3,0,0.5,0.2,0.6,0.4l7.4,19l7.3-19c0.1-0.3,0.4-0.4,0.6-0.4h6.1c0.2,0,0.3,0.1,0.4,0.3c0,0,0,0,0,0v27.1c0,0.2-0.1,0.3-0.3,0.4   c0,0,0,0,0,0h-4.2C297.7,188,297.6,187.8,297.6,187.6z"/>
</g>
</svg>